<svg width="44" height="49" viewBox="0 0 44 49" fill="none" xmlns="http://www.w3.org/2000/svg">
<path d="M21.58 4.10791C17.94 4.10791 15 7.01217 15 10.6079C15 14.176 17.94 17.0802 21.552 17.1079C20.656 17.0802 19.956 16.3611 19.956 15.476C19.956 14.5909 20.684 13.8441 21.608 13.8441C25.528 13.8441 34.236 13.8441 38.072 13.8441C40.788 13.8441 43 11.659 43 8.97603C43 6.29301 40.788 4.10791 38.072 4.10791L21.58 4.10791Z" fill="#5720B7"/>
<path d="M13.58 17.1079C9.94 17.1079 7 20.0122 7 23.6079C7 27.176 9.94 30.0802 13.552 30.1079C12.656 30.0802 11.956 29.3611 11.956 28.476C11.956 27.5909 12.684 26.8441 13.608 26.8441C17.528 26.8441 26.236 26.8441 30.072 26.8441C32.788 26.8441 35 24.659 35 21.976C35 19.293 32.788 17.1079 30.072 17.1079L13.58 17.1079Z" fill="#6927DA"/>
<path d="M8.05 30.1079C4.15 30.1079 1 33.2356 1 37.1079C1 40.9505 4.15 44.0781 8.01998 44.1079C7.05999 44.0781 6.31 43.3037 6.31 42.3504C6.31 41.3973 7.09002 40.593 8.08003 40.593C12.28 40.593 21.61 40.593 25.72 40.593C28.63 40.593 31 38.2398 31 35.3505C31 32.4611 28.63 30.1079 25.72 30.1079L8.05 30.1079Z" fill="#7839EE"/>
</svg>
