<svg width="24" height="25" viewBox="0 0 24 25" fill="none" xmlns="http://www.w3.org/2000/svg">
<g clip-path="url(#clip0_110_180)">
<path d="M20.8426 17.2528C20.5099 18.0215 20.1161 18.729 19.6598 19.3794C19.0378 20.2662 18.5286 20.88 18.1361 21.2209C17.5277 21.7804 16.8759 22.0669 16.1779 22.0832C15.6768 22.0832 15.0725 21.9406 14.3691 21.6513C13.6633 21.3634 13.0148 21.2209 12.4217 21.2209C11.7998 21.2209 11.1327 21.3634 10.4193 21.6513C9.70469 21.9406 9.12904 22.0913 8.68892 22.1063C8.01957 22.1348 7.35239 21.8401 6.68644 21.2209C6.26139 20.8501 5.72974 20.2146 5.09285 19.3143C4.40951 18.3528 3.84772 17.2379 3.4076 15.9668C2.93624 14.5939 2.69995 13.2644 2.69995 11.9773C2.69995 10.503 3.01853 9.23136 3.65665 8.16575C4.15815 7.30982 4.82533 6.63463 5.66035 6.13896C6.49537 5.6433 7.39761 5.39071 8.36925 5.37455C8.9009 5.37455 9.59809 5.539 10.4645 5.86221C11.3284 6.18649 11.8832 6.35094 12.1264 6.35094C12.3082 6.35094 12.9245 6.15865 13.9692 5.77529C14.9571 5.41977 15.7909 5.27257 16.474 5.33055C18.3249 5.47993 19.7155 6.20958 20.6402 7.52411C18.9849 8.52711 18.166 9.93194 18.1823 11.7341C18.1972 13.1379 18.7065 14.306 19.7073 15.2335C20.1609 15.664 20.6674 15.9967 21.231 16.233C21.1087 16.5874 20.9797 16.9269 20.8426 17.2528ZM16.5975 0.54828C16.5975 1.64853 16.1956 2.67583 15.3944 3.62669C14.4275 4.75708 13.258 5.41027 11.9898 5.3072C11.9736 5.1752 11.9642 5.03628 11.9642 4.8903C11.9642 3.83406 12.424 2.70367 13.2406 1.77943C13.6483 1.31147 14.1667 0.922363 14.7955 0.611968C15.4229 0.306205 16.0163 0.137111 16.5744 0.108154C16.5907 0.255241 16.5975 0.402336 16.5975 0.548265V0.54828Z" fill="white"/>
</g>
<defs>
<clipPath id="clip0_110_180">
<rect width="24" height="24" fill="white" transform="translate(0 0.10791)"/>
</clipPath>
</defs>
</svg>
