<svg width="24" height="25" viewBox="0 0 24 25" fill="none" xmlns="http://www.w3.org/2000/svg">
<g clip-path="url(#clip0_110_176)">
<path d="M24 12.1079C24 5.48049 18.6274 0.10791 12 0.10791C5.37258 0.10791 0 5.48049 0 12.1079C0 18.0974 4.3882 23.0619 10.125 23.9621V15.5767H7.07812V12.1079H10.125V9.46416C10.125 6.45666 11.9166 4.79541 14.6576 4.79541C15.9701 4.79541 17.3438 5.02979 17.3438 5.02979V7.98291H15.8306C14.34 7.98291 13.875 8.90799 13.875 9.85791V12.1079H17.2031L16.6711 15.5767H13.875V23.9621C19.6118 23.0619 24 18.0974 24 12.1079Z" fill="white"/>
</g>
<defs>
<clipPath id="clip0_110_176">
<rect width="24" height="24" fill="white" transform="translate(0 0.10791)"/>
</clipPath>
</defs>
</svg>
