<svg width="25" height="25" viewBox="0 0 25 25" fill="none" xmlns="http://www.w3.org/2000/svg">
<g clip-path="url(#clip0_110_169)">
<path d="M24.2663 12.3844C24.2663 11.5687 24.2001 10.7485 24.059 9.94604H12.7402V14.567H19.222C18.953 16.0574 18.0888 17.3758 16.8233 18.2135V21.2119H20.6903C22.9611 19.1219 24.2663 16.0353 24.2663 12.3844Z" fill="#4285F4"/>
<path d="M12.7401 24.1087C15.9766 24.1087 18.7059 23.0461 20.6945 21.2118L16.8276 18.2135C15.7517 18.9454 14.3627 19.3599 12.7445 19.3599C9.61388 19.3599 6.95946 17.2478 6.00705 14.4082H2.0166V17.4991C4.05371 21.5513 8.2029 24.1087 12.7401 24.1087Z" fill="#34A853"/>
<path d="M6.00277 14.4081C5.50011 12.9178 5.50011 11.304 6.00277 9.8136V6.72266H2.01674C0.314734 10.1134 0.314734 14.1083 2.01674 17.4991L6.00277 14.4081Z" fill="#FBBC04"/>
<path d="M12.7401 4.85757C14.4509 4.83111 16.1044 5.47488 17.3434 6.65658L20.7695 3.23053C18.6001 1.19341 15.7208 0.0734442 12.7401 0.108719C8.2029 0.108719 4.05371 2.66613 2.0166 6.72272L6.00264 9.81366C6.95064 6.96964 9.60947 4.85757 12.7401 4.85757Z" fill="#EA4335"/>
</g>
<defs>
<clipPath id="clip0_110_169">
<rect width="24" height="24" fill="white" transform="translate(0.5 0.10791)"/>
</clipPath>
</defs>
</svg>
